<?xml version="1.0" encoding="UTF-8"?>
<svg id="Capa_2" xmlns="http://www.w3.org/2000/svg" xmlns:xlink="http://www.w3.org/1999/xlink" version="1.1" viewBox="680 360 670 260">
  <!-- Generator: Adobe Illustrator 30.1.0, SVG Export Plug-In . SVG Version: 2.1.1 Build 136)  -->
  <defs>
    <style>
      .st0 {
        fill: #be8e07;
      }

      .st1 {
        fill: #f9904f;
      }

      .st2 {
        fill: #ea961c;
      }

      .st2, .st3, .st4, .st5 {
        font-family: Chewy-Regular, Chewy;
      }

      .st2, .st5 {
        font-size: 70.1px;
      }

      .st6 {
        fill: #a556a7;
      }

      .st3 {
        font-size: 119.99px;
      }

      .st4 {
        fill: #fff;
        font-size: 38.17px;
      }

      .st7 {
        fill: #04bab6;
      }

      .st8 {
        fill: #0e0b06;
      }

      .st5 {
        fill: #f9b517;
      }

      .st9 {
        fill: #20c7fb;
      }

      .st10 {
        fill: url(#Degradado_sin_nombre_28);
      }

      .st11 {
        fill: #fbcc02;
      }

      .st12 {
        fill: #f31441;
      }
    </style>
    <linearGradient id="Degradado_sin_nombre_28" data-name="Degradado sin nombre 28" x1="862.58" y1="464.41" x2="673.56" y2="528.06" gradientUnits="userSpaceOnUse">
      <stop offset="0" stop-color="#1994fb"/>
      <stop offset=".25" stop-color="#158af5"/>
      <stop offset=".65" stop-color="#0d71e7"/>
      <stop offset=".99" stop-color="#0457d9"/>
    </linearGradient>
  </defs>
  <path class="st1" d="M870.6,622.89c4.4-.75,7.64-1.43,11.05-1.86,2.95-.37,4.83-.93,5.96-1.87.25-.21.6-.41.96-.66,5.86-.86,12.03-.81,18.49-1.56-1.71-.46-3.51-.19-5.02-.23-2.18-.05-4.41-.03-6.58-.11-1.04-.04-1.97-.22-3.62-.42,1.15-.3,1.74-.55,2.38-.6,9.58-.69,19.17-1.38,28.77-2.01,3.56-.23,7.15-.25,10.71-.45,2.89-.17,5.75-.49,8.64-.71,2.21-.17,4.43-.34,6.64-.43,9.16-.35,18.29-.82,27.33-1.84.65-.07,1.33-.17,1.98-.19,11.71-.22,23.19-1.61,34.79-2.4,4.02-.27,8.03-.61,12.04-.92,6.9-.53,13.96-.85,20.66-1.67,5.75-.71,11.43-.91,17.14-1.35,5.02-.39,10-.88,15.7-1.39-3.6-.4-6.73-.26-9.82-.1-10.74.55-21.48,1.11-32.22,1.71-6.48.36-12.96.81-19.43,1.21-.4.02-.81-.07-1.3-.11.54-.7,1.49-1.42,1.56-2.1.12-1.37-2.05-1.98-6.19-1.79-2.9.13-5.83.33-8.71.59-14.91,1.34-29.92,2.14-44.9,3.04-17.45,1.05-34.91,1.98-52.36,2.96-3.09.17-6.21.39-9.07-.02.19-.53,1.47-.62,2.49-.69,5.8-.39,11.61-.72,17.41-1.12,4.02-.27,8.02-.61,12.03-.92,1.99-.15,3.98-.32,5.98-.45,9.36-.59,18.73-1.1,28.06-1.77,9.36-.68,18.67-1.56,28.03-2.29,12.23-.96,24.48-1.83,36.7-2.8,3.99-.31,7.92-.82,11.92-1.25-5.29-.45-10.51-.16-15.76.77-.77.13-1.72.11-2.59.17-2.43.16-4.87.28-7.28.49-4.19.37-8.29,1.05-12.61.9-.84-.03-1.81.04-2.66.15-8.73,1.12-17.7,1.27-26.5,2.06-4.88.43-9.71,1.02-14.68,1.04-3.85.92-7.77.54-11.7.67-5.07.17-10.27.24-15.16,1.23-.72.15-1.83.22-2.57.16-5.33-.43-10.58.29-15.88.8-3.27.31-6.61.48-9.92.66-.72.04-1.57-.14-2.17-.29-1.81-.46-3.9-.49-6.23-.29-3.31.29-6.63.55-9.94.82-.25-.1-.71-.2-.68-.3.41-1.68.42-1.67-4.03-2.04-.83-.07-1.63-.16-2.46-.23-.59-.05-1.21-.08-2.68-.17,3.11-.45,5.45-.8,7.95-1.16-.03-.6,0-1.12-.1-1.63-.11-.55.29-1.08,1.63-1.48,2.5-.73,2.53-1.64,2.67-2.51,2.07-.65,4.41-.63,6.59-.77,3.59-.23,7.08-.56,10.61-.99,3.9-.47,7.96-.7,11.97-.98,4.23-.29,8.48-.49,12.72-.77,12.73-.83,25.47-1.63,38.18-2.57,6.9-.51,13.77-1.1,20.68-1.6,11.6-.83,23.17-1.78,34.75-2.69,1.07-.08,2.15-.19,3.32-.56-.86-.04-1.73-.16-2.56-.1-8.26.58-16.55,1.11-24.76,1.82-16.24,1.39-32.53,2.53-48.83,3.54-14.31.88-28.62,1.67-42.93,2.5-4.28.25-8.44.28-12.23-.09-1.31-.88,2.34-1.17,2.17-1.86q-2.71-.26-4.62.62c-.51-.04-1.23-.01-1.64-.12-2.27-.6-4.88-.74-7.97-.51-2.65.2-5.34.3-8.05.15,3.38-.22,6.75-.42,10.12-.65,2.01-.14,4.05-.25,5.99-.51,3.07-.4,4.1-1.12,3.47-2.18-.38-.63-.77-1.26-1.22-2.01-1.51,0-3-.03-4.51.03-9.39.33-18.8.75-28.18,1.01-4.86.14-9.81.21-14.46-.47,1.6-1.39.66-2.82,2.05-4.25.28-.29.12-.61.4-.89.35-.37.93-.72,1.4-1.08.62-.47.55-.89-.17-1.27-.54-.29-.99-.59-1.7-1.03,1.48-.16,2.5-.28,3.52-.38.87-.09,1.74-.16,2.98-.27-.75-.36-1.48-.61-1.86-.92-1.19-.97.08-1.82,3.37-2.09,3.32-.27,6.69-.4,10.05-.58,1.09-.06,2.18-.12,4.24-.23-3.68-.73-7.43-.25-10.49-.51-1.76-.84-3.5-1.68-5.41-2.6.52-.79,1.14-1.73,1.97-2.98,1.03-.54,5.03-.48,5.38-1.84-1.25-.41-2.84-.93-4.57-1.49,2.99-.38,6.04-.88,9.15-1.12,3.3-.25,6.67-.23,10.01-.36,3.35-.13,6.7-.3,10.06-.45,6.04-.28,12.08-.56,18.11-.86,1.54-.08,3.19-.18,4-.92-8.28.19-16.62,1.12-24.6.58-.56-.04-.96-.23-1.38-.34.17-.57,1.47-.62,2.46-.7,2.61-.22,5.23-.38,7.76-.56.09-.21.18-.28.12-.32-.1-.06-.28-.14-.46-.14-3.98.03-7.97.07-12,.11-.48-1.16-3.35-1.27-6.2-1.48,8.05-.17,15.67-.7,23.16-1.4-3.65-.31-7.56-.33-11.61-.17-2.45.1-4.92.09-7.31.03-2.84-.08-5.68-.23-7.34-1.25.93-.2,1.96-.58,2.72-.56,4.42.13,8.75-.72,13.23-.62,4.13.09,8.45-.13,12.7-.25,4.44-.12,8.89-.28,13.33-.46,1.48-.06,2.97-.24,5.12-.42-3.09-1.07-7.14.28-10-.43-2.66-.66-6.5.34-9.88.01.91-.22,1.68-.41,2.83-.69-6.03-.02-11.7-.05-17.37-.05-3.63,0-6.88-.25-9.7-1.06,1.15-.26,2.2-.49,3.21-.71-.28-1.44-4.77-1.16-7.77-1.96,3.98-.15,6.99-.26,10.23-.38-.03-.52-.14-.94-.05-1.35.1-.44.39-.89.65-1.47,1.43-.08,2.93-.15,4.44-.24,6.93-.4,13.86-.78,20.79-1.23,1.47-.09,3.12-.35,4.33-.69,4.08-1.14,8.34-1.79,13.25-1.53.58.03,1.29-.09,1.93-.16.2-.02.35-.1.55-.16-.3-.5-1.41-.43-2.49-.26-2.83.45-5.57.62-8.63.24.64-.26.97-.51,1.43-.57,6.52-.82,13.1-1.27,19.79-1.39,2.63-.05,5.33-.38,8-.54,6.48-.38,12.97-.78,19.44-1.1,12.73-.63,25.46-1.24,38.18-1.8,12.52-.55,25.04-1.05,37.55-1.52,4.46-.17,8.9-.18,13.35-.26.67-.01,1.33-.02,2-.04,10.49-.33,20.98-.65,31.47-.99,10.04-.33,20.05-.54,30.05-.69,6.67-.1,13.38-.33,20.07-.51q3.61-.09,6.67.86c.62,0,1.29.02,1.95-.02,4.01-.26,7.93-.44,11.92-.28,3.41.14,7.08-.04,10.64-.11,6-.1,12.01-.22,18.01-.34.89-.02,1.86-.12,2.66-.06,3.86.28,7.92-.08,11.84-.07,8.19.03,16.45-.43,24.65-.58,2.01-.04,4.03-.09,6-.06,5.02.06,10.04-.05,15.16-.22,8.43-.28,16.87-.45,25.13-.04,5.96.29,12,.55,18.35.36,8.06-.25,8.69-.18,16.52,1.22,2.53.45,5.05.68,7.96.66,3.11-.01,6.25-.09,9.33-.05,2.78.04,5.61-.06,8.02.58,1.47.39,4.14.27,6.22.44,3.96.31,7.74.79,12.15.63,1.22-.04,2.4.25,3.61.37,1.41.14,2.8.33,4.28.37,1.98.05,3.81.05,5.23.6.69.26,2.35.29,3.63.3,3.09.02,6.22-.02,9.34-.08,2.08-.05,3.87.07,6,.54-1.94.28-3.33.58-4.76.68-6.02.41-12.05.77-18.07,1.14-2.23.14-4.48.22-6.71.35-1.68.1-3.05.41-3.73.98-.84.7,1.04.83,1.97,1.17-1.27.63-3.37,1.21-1.19,1.98.73.26.55.81.84,1.31,1.53.12,3.16.24,5.5.42-2.1.27-3.58.4-4.9.65-4.1.76-5.09,2.2-2.26,3.2,1.78.63,3.87,1.04,6.84.9,2.68-.13,5.35-.21,8.25-.31.52.18,1.23.35,1.59.58,1.3.86,3.59,1.13,6.44,1.06,2.67-.07,5.36-.16,8.04-.26,2.2-.07,4.5-.32,6.83.21-1.39.25-2.49.54-3.66.65-1.53.14-3.13.2-4.67.21-3.6.02-6.48.54-8.91,1.67.98.92,3.51,1.25,6.16,1.5-.59.51-1.07.94-1.74,1.52,2.13.2,4.11.38,6.29.58-1.37.63-2.59,1.19-3.76,1.73-3.22.17-6.33.33-9.45.51-2,.12-4.04.21-6,.42-3.03.34-3.84,1.14-2.18,1.95,1.25.61,2.96.97,5.41.89,2.01-.06,4.03-.16,6.04-.2,2.19-.04,4.37-.04,6.59-.06.16.56-.98.5-1.56.64-.94.22-2,.41-2.76.69-.61.22-.72.59-1.3.83-.57.23-1.44.49-2.21.54-3.75.25-6.28.98-7.62,2.15-1.99.27-3.71.51-5.44.73-.86.11-1.97.34-2.59.26-5.52-.7-10.98.69-16.51.81-5.33.11-6.15.59-6.73,2.62-16.19,1.27-32.47,1.08-48.63,2.42-.38.51.55.55,1.4.57,2.1.07,4.47-.17,6.48.4-.99.1-1.67.25-2.25.23-3.16-.1-6.14.14-9.19.68-2.07.37-4.38.71-6.54.78-9.23.27-18.07,1.85-27.29,2.13-1.69.05-3.42.4-5.52.66,2.88,1.12,7.26-.41,9.9.39-2.66,1.26-5.29,1.9-8.51,2.08-2.6.14-5.19.29-8.26.47.59.35.78.63,1.18.65,1.47.07,3.03.04,4.52.09.14,0,.04.34.05.58,1.67-.05,3.42-.08,5.16-.18.81-.05,2.08-.21,2.31-.4.83-.68,2.26-.71,3.88-.75.87-.02,1.81-.08,2.63-.21,2.1-.33,3.82-.32,5.58.09.91.21,2.4.17,4.5.29-1.41.23-2.09.39-2.77.44-4.47.31-8.94.64-13.42.86-9.65.48-19.15,1.4-28.67,2.32-1.08.1-2.76.25-3.06.48-1.43,1.14-4,.89-6.3.98-.89.03-1.79.04-2.67.03-2.21,0-4.41-.14-6.61-.03-4,.21-8,.56-12.17.86.84.7,2.61.45,3.99.42,6.68-.12,13.37-.28,20.06-.41.65-.01,1.29.03,2.23.06-2.93.84-6.16.87-9.17,1.1-2.65.2-5.36.23-8.04.31-2.91.09-5.83.06-8.71.26-7.39.53-14.6.31-21.91.55-7.36.24-14.6.47-22,1.3-8.96,1.01-18.15,1.57-27.35,1.96-6.25.26-12.51.78-18.77,1.19-.82.05-1.63.2-3.93.5,6.56-.24,11.56-.36,16.55-.62,7.59-.39,15.17-.76,22.72-.82.22,0,.45-.02.67-.04,8.29-.93,16.41-.49,24.63-.82.89-.04,1.79-.01,2.68-.06,9.86-.53,19.66-.65,29.47-.87q1.6-.04,5.06-.74c-1.09-.12-1.84-.19-2.9-.31,3.58-.97,6.58-.42,10.85-.65-1.97.39-2.73.55-3.49.7.21.09.41.26.64.26,3.34-.11,6.69-.25,10.43-.39-1.93.21-3.53.39-5.13.57,0,.09,0,.17-.02.26,1.17.03,2.37.03,3.52.09,1.03.05,2,.16,3.37.28-.83.27-1.31.43-1.78.58,2.92.64,5.88.79,9.36.59,8.47-.49,16.94-.96,25.42-1.43,8.23-.45,16.47-.89,24.67-1.48-4.88.5-9.77.99-14.65,1.5-3.29.34-6.46.72-9.93.73-3.01,0-6.19.49-9.31.7-7.81.52-15.63,1.01-23.45,1.48-2.45.15-4.78.36-8.29,1.01,2.02.07,2.75.16,3.46.11,4.44-.29,8.9-.19,13.33-.76,1.26-.16,2.69-.19,4.02-.2,7.83-.03,15.61-.79,23.41-1.22,5.13-.28,10.27-.37,15.4-.55,2.01-.07,4.03-.1,6.02-.25,2.41-.18,4.57-.04,6.22.36,1.98.48,3.87,1.08,3.49,2.12-6.3,1.37-13.13,1.91-19.93,2.45-6.24.49-12.51.89-18.76,1.31-1.56.11-3.17.25-4.69.23-10.94-.09-21.84,1.06-32.76,1.64-4.25.72-8.58,1.03-13,.89-.21,0-.44.04-.66.06-13.95,1.27-28.05,1.94-42.01,3.14-5.08.44-10.1,1.06-15.18,1.51-8.43.76-16.88,1.45-25.33,2.16-.89.07-1.79.14-2.69.17-12.1.44-23.96,1.87-35.96,2.73-.67.05-1.33.15-1.99.19-11.62.69-23.09,1.88-34.66,2.76-3.77.29-7.53.65-11.29.98-1.33.12-2.67.3-4,.35-12.84.43-25.24,2.25-37.95,3.12-5.3.36-10.64,1.09-15.95,1.19-4.27.08-8.46.31-12.69.6-2.23.15-4.44.37-6.67.55-1.33.11-2.67.28-3.98.31-10.53.25-21,1.17-31.49,1.81-6.49.39-12.99.74-19.48,1.13-2.52.15-4.83.1-7.03-.25-2.01-.32-4.21-.54-7.13-.89M1050.38,595.08c10.22-.04,20.2-1.06,30.17-2.06.25-.02.4-.26.69-.46-4.53-.35-8.7.77-13.1.97-5.92.27-11.84,1.01-17.76,1.55M1086.78,592.18c3.04.01,6.38.18,9.58-.52l-9.58.52ZM920.68,551.93c3.08.31,5.82-.09,9.42-.5-3.62.03-6.38-.16-9.42.5M1210.34,582.83c1.55.22,3.07.58,4.26-.28-.64-.04-1.27-.14-1.86-.09-.81.06-1.6.24-2.39.37M936.44,551.08c-.36,0-.73-.03-1.1-.02-.07,0-.17.09-.25.13.36,0,.73.03,1.1.02.07,0,.17-.08.25-.13M1235.54,580.21v.14s.49-.09.49-.09l-.49-.05ZM1056.7,619.62c2.52.1,5.33-.18,7.99-.22,2.82-.04,5.17.42,8.28.26,11.4-.57,22.81-1.03,34.2-1.43,19.66-.7,39.31-1.33,58.96-1.97,7.82-.25,15.63-.46,23.44-.7,1.52-.05,3.23-.06,3.78-.86-2.01-.92-4.51-1.7-7.8-2.33-4.89.94-9.99,1.04-15.13,1.16-2.68.06-4.44-.23-5.3-1.04,1.19-.19,2.33-.37,3.48-.55-2.17-.22-4.29-.21-6.42-.13-4.02.14-8.05.33-12.08.49-14.75.56-29.5,1.1-44.25,1.68-2.6.1-5.23.12-7.31,1.08-.74.34-2.91.45-4.43.53-11.41.56-22.81,1.07-34.22,1.62-3.13.15-6.27.31-9.39.52-1.33.09-2.6.35-2.61,1.08,2.81.28,5.7.7,8.82.83M1059.38,612.7c.65,0,1.29.03,1.94,0,10.28-.55,20.57-1.11,30.85-1.64,3.79-.19,7.59-.35,11.37-.43,8.9-.19,17.76-.2,26.73-.69,4.02-.22,8.05-.35,12.07-.47,8.93-.27,17.87-.55,26.78-.76,6.68-.15,13.42-.75,20.06-.56,1.8.05,3.85-.04,5.77-.51-.56-.09-.9-.21-1.29-.21-9.49,0-18.93-.07-28.55.29-7.81.3-15.6.39-23.41.69-10.49.4-20.99.86-31.49,1.36-13.16.62-26.33,1.29-39.49,1.96-3.76.19-7.53.46-11.29.7-.02.09-.03.18-.05.27M1133.7,611.95c4.86-.21,9.73-.48,14.57-.42,2.32.03,4.81-.01,7.56-.43-.82-.14-1.32-.3-1.86-.29-10.83.14-21.69.58-32.61,1.21,4.12-.02,8.15.12,12.34-.07M1152.36,590.96l-11.58.63s0,.07,0,.11c3.86-.12,7.73-.24,11.59-.37,0-.12,0-.24,0-.37M1169.14,590.4c-2.5.17-5,.35-7.49.52,0,.05.01.1.02.15l7.67-.41c-.07-.08-.13-.17-.2-.25M891.04,551.67c-2.31.09-4.18.16-6.04.24q4.13.43,6.04-.24M1010.52,605.21l-6.49.46c.01.06.02.12.03.18l6.61-.36c-.05-.09-.1-.19-.15-.28M1180.13,590.33c-1.04.06-2.07.13-3.1.16-1.02.03-2.03.03-3.04.04,0,.08,0,.16,0,.25l6.15-.33s0-.08,0-.11M1149.02,530.54l-5.03.27c0,.07-.02.13-.02.2,1.67-.04,3.34-.07,5.01-.11.02-.12.03-.24.05-.36M1165.06,610.41c-1.51.05-2.77.1-4.03.14q2.43.5,4.03-.14M1204.92,529.39l-2.44.13c.02.05.04.1.06.15.81-.06,1.63-.12,2.44-.18-.02-.04-.04-.07-.06-.11M1247.31,579.81c-.46.13-.91.27-1.37.4.25.09.54.26.76.25.48-.04.92-.18,1.42-.29-.38-.17-.59-.26-.81-.36M1245.42,528.52c-.21,0-.44.02-.66.04.2.04.38.1.6.11.19,0,.42-.05.62-.09-.19-.02-.36-.06-.56-.06M1162.27,530.36c-.38-.01-.75-.04-1.13-.03-.17,0-.37.06-.55.09.29.04.58.07.87.11.27-.06.54-.12.81-.17M1262.52,580.99c-.09,0-.14.19-.21.28.37-.03.75-.04,1.1-.09.11-.01.14-.12.21-.18-.37,0-.74-.04-1.1-.01M866.39,557.18c.19.02.47.07.56.05.18-.05.24-.14.35-.22-.22,0-.43.01-.66.02-.09.05-.17.1-.26.15M1190.38,529.63c-.71.03-1.42.05-2.13.08,0,.07,0,.14,0,.21l2.13-.12v-.18ZM1227.18,529.19c.15.02.38,0,.58,0-.05-.08-.1-.16-.15-.23-.18.03-.36.06-.55.08.04.05.02.13.12.15"/>
  <path class="st12" d="M753.39,559.69s-33.65-9.51-59.03-65.56c0,0,55.79,2.99,72.02-18.27l22.14,33.35-35.13,50.47Z"/>
  <circle class="st7" cx="780.26" cy="423.17" r="15.91"/>
  <g>
    <path class="st8" d="M1345.22,507.57c-2.24,2.46-3.6,6.71-7.16,7.46-8.03,1.69-16.24,1.87-24.64,1.23-3.34-9.06-4.53-18.25-6.05-27.53-8.4-.25-15.91.69-23.86.99-2.08-4.23-3.2-8.59-4.03-13.19l-3.6-19.98c-1.07-5.92,4.97-6.31,8.32-10.37,5.8-1.18,11.6-1.61,17.67-1.9.29-6.23-1.39-11.81-2.15-18.03-1.17-9.57,1.19-5,8.48-14.04,3.43-1.61,8.26-1.04,12.09-1.78,5.55-1.08,10.94-1.27,16.58-.87,3.51,9.67,2.18,20.32,5.5,30.32,4.52.51,28.46-6.75,27.94.13-.84,11.15,2.7,23.83.41,31.2-1.09,3.49-3.6,9.17-6.9,10.71-5.32,2.48-11.38,1.26-16.97,2.34l1.03,15.94c.2,3.05-.42,4.92-2.65,7.37ZM1344.06,502.5c1.39-11.24-2.11-21.61-1.28-32.61l24.63-3.53c1.96-7.95-1.12-16.59-.42-25.27-10.48-.74-17.82,2.46-27.65,2.53-2.86-10.5-2.26-19.62-4.73-30.22-7.57.21-14.79.73-22.27,2.37l3.06,28.03c.14,1.31-.71,2.63-1.52,3.37l-15.39.79c-3.48.18-8.41-.03-11.2,2.23-3.19,4.97.44,19.32,2.04,25.65,11,1.67,17.64-3.06,27.97-4.88,2.14,11.27,3.63,22.23,5.13,33.59,6.8,1.58,14.75-.88,21.64-2.05ZM1306.7,444.25c2.33.47,4,.15,5.83-.6-.47-8.76-1.53-17.23-3.3-26.1l-5.4,4.55c.28,7.47,1.05,14.66,2.87,22.15ZM1340.48,506.24c-6.23,1.13-15.19,3.31-20.08.48-1.11-10.83-2.67-21.19-4.81-32.05l-16.5,4.03c-4.03.98-8.19,1.32-11.99-.04-2.21-7.79-2.9-15.4-3.66-23.3-.06-.61-.61-1.89-1.07-1.84-3.54.38-2.81,5.89-2.15,8.74l5.4,23.17,24.22-.99c2.69,9.87,2.66,18.09,5.78,27.9,5.84-.53,23.97,1.52,24.85-6.1ZM1345.65,479.95c6.22,0,11.45-.74,17.04-1.8,1.84-2.38,3.13-5.02,3.86-7.83-4.75-.52-8.93,1.16-13.4,1.86-2.7.43-5.46-.05-8.08,1.19-.1,2.17-.55,4.44.59,6.57Z"/>
    <path class="st11" d="M1344.06,502.5c-6.89,1.17-14.84,3.63-21.64,2.05-1.5-11.36-2.99-22.33-5.13-33.59-10.33,1.82-16.97,6.55-27.97,4.88-1.6-6.33-5.24-20.68-2.04-25.65,2.8-2.26,7.73-2.05,11.2-2.23l15.39-.79c.81-.74,1.66-2.06,1.52-3.37l-3.06-28.03c7.48-1.65,14.71-2.17,22.27-2.37,2.47,10.6,1.88,19.72,4.73,30.22,9.83-.07,17.17-3.27,27.65-2.53-.7,8.67,2.39,17.32.42,25.27l-24.63,3.53c-.83,11,2.67,21.37,1.28,32.61ZM1342.26,457.8c.9-.49.05-1.89-.34-2.43-.45-.63-2.11-1.19-2.27-.18-.14.87.07,1.87.28,2.33s1.75.61,2.34.29ZM1337.66,458.46c-1.04-1.49-2.25-1.93-3.69-1.18.3,1.38,1.15,2.13,1.57,3.14.78-.96,1.71-.89,2.11-1.96ZM1300.92,462.76c1.65.77,2.89-3.04,1.74-3.62-1.39-.7-3.53,2.78-1.74,3.62ZM1307.26,460.63c-.61-.05-1.27.03-1.7.32-.76.5-1.07,1.35-.8,2.12.17.5.91,1.02,1.55.72.73-.34,2.28-3.05.96-3.16Z"/>
    <path class="st0" d="M1340.48,506.24c-.89,7.61-19.02,5.56-24.85,6.1-3.13-9.81-3.09-18.03-5.78-27.9l-24.22.99-5.4-23.17c-.66-2.85-1.39-8.37,2.15-8.74.46-.05,1.01,1.23,1.07,1.84.76,7.9,1.44,15.51,3.66,23.3,3.8,1.36,7.96,1.03,11.99.04l16.5-4.03c2.14,10.86,3.7,21.22,4.81,32.05,4.88,2.83,13.84.66,20.08-.48Z"/>
    <path class="st0" d="M1306.7,444.25c-1.81-7.49-2.59-14.68-2.87-22.15l5.4-4.55c1.77,8.87,2.83,17.34,3.3,26.1-1.83.75-3.5,1.08-5.83.6Z"/>
    <path class="st11" d="M1345.65,479.95c-1.14-2.13-.69-4.4-.59-6.57,2.62-1.24,5.38-.77,8.08-1.19,4.47-.7,8.65-2.38,13.4-1.86-.73,2.81-2.02,5.44-3.86,7.83-5.59,1.06-10.82,1.81-17.04,1.8Z"/>
    <path class="st8" d="M1300.92,462.76c-1.8-.84.35-4.32,1.74-3.62,1.15.58-.09,4.39-1.74,3.62Z"/>
    <path class="st8" d="M1337.66,458.46c-.4,1.08-1.33,1-2.11,1.96-.43-1.01-1.27-1.77-1.57-3.14,1.43-.75,2.65-.31,3.69,1.18Z"/>
    <path class="st8" d="M1307.26,460.63c1.33.11-.22,2.82-.96,3.16-.63.3-1.37-.22-1.55-.72-.27-.77.05-1.62.8-2.12.43-.29,1.09-.37,1.7-.32Z"/>
    <path class="st8" d="M1342.26,457.8c-.59.32-2.13.18-2.34-.29s-.42-1.46-.28-2.33c.17-1.01,1.82-.44,2.27.18.39.54,1.24,1.94.34,2.43Z"/>
  </g>
  <text class="st3" transform="translate(881.91 513.9)"><tspan x="0" y="0">Aprende</tspan></text>
  <path class="st10" d="M736.23,419.72s18.93,38.97,42.31,41.86,32.51-20.93,32.51-20.93c0,0,5.34-13.36,8.02-26.5,0,0,2.23-8.66,13.81-6.56s10.24,12.79,10.24,12.79c0,0-3.56,36.49-25.38,76.14s-48.32,80.18-91.74,108.9c0,0-12.92,4.23-17.15-2.67s0-14.7,0-14.7c0,0,55-38.75,62.79-66.13,0,0-59.23,28.5-92.86,21.82,0,0-12.02-2.78-10.02-15.75s25.16-9.19,25.16-9.19c0,0,47.26.99,74.37-29.62,0,0-48.24-30.52-54-58.78-.9-4.43.57-9.13,4.17-11.86s9.07-3.95,17.76,1.17Z"/>
  <text class="st2" transform="translate(726.9 389.73) rotate(-23.09)"><tspan x="0" y="0">a</tspan></text>
  <text class="st5" transform="translate(812.57 592.99) rotate(-23.09)"><tspan x="0" y="0">z</tspan></text>
  <path class="st9" d="M705.03,468.01c0,1.04-.52,1.85-1.57,2.41-1.04.57-2.26,1-3.65,1.3-1.39.31-2.78.5-4.18.59-1.39.09-2.39.13-3,.13-1.74.09-3.46.15-5.15.2-1.7.05-3.37.07-5.02.07-.09.61-.15,1.55-.2,2.81-.04,1.26-.13,2.7-.26,4.31-.13,1.61-.31,3.26-.52,4.96-.22,1.7-.54,3.24-.98,4.63-.44,1.39-.94,2.57-1.5,3.52-.57.96-1.29,1.48-2.15,1.57-1.22.09-2.24-.83-3.07-2.74-.83-1.91-1.5-4.11-2.02-6.59s-.91-4.89-1.17-7.24c-.26-2.35-.44-3.92-.52-4.7-.96,0-2.65-.02-5.09-.06-2.44-.04-4.96-.17-7.57-.39-2.61-.22-4.92-.61-6.92-1.17-2-.56-3-1.41-3-2.54,0-1.57,1.04-2.74,3.13-3.52,2.09-.78,4.48-1.33,7.18-1.63,2.7-.3,5.33-.43,7.9-.39,2.56.05,4.33.07,5.29.07v-2.48c0-.87.07-2.39.2-4.57.13-2.17.43-4.39.91-6.66.48-2.26,1.13-4.24,1.96-5.94.83-1.7,1.98-2.54,3.46-2.54,1.22,0,2.17,1,2.87,3,.69,2,1.19,4.26,1.5,6.79.3,2.52.48,4.98.52,7.37.04,2.39.07,3.98.07,4.76,1.65.09,3.31.15,4.96.2,1.65.05,3.31.11,4.96.2.61,0,1.61.04,3,.13,1.39.09,2.81.28,4.24.59,1.44.31,2.7.74,3.78,1.3,1.09.57,1.63,1.33,1.63,2.28Z"/>
  <circle class="st6" cx="870.81" cy="363.48" r="6.02"/>
  <circle class="st6" cx="862.1" cy="399.56" r="6.02"/>
  <rect class="st6" x="842" y="374.69" width="48.97" height="12.13" rx="6.07" ry="6.07" transform="translate(105.21 -181.59) rotate(12.73)"/>
  <text class="st4" transform="translate(920.68 572.02)"><tspan x="0" y="0">Club educativo integral</tspan></text>
</svg>